<svg width="13" height="9" viewBox="0 0 13 9" fill="none" xmlns="http://www.w3.org/2000/svg">
<path d="M12.9215 4.15781C11.6975 1.67789 9.27447 0 6.5 0C3.72553 0 1.3018 1.67906 0.0785295 4.15805C0.0268999 4.2641 0 4.38128 0 4.50012C0 4.61896 0.0268999 4.73613 0.0785295 4.84219C1.30247 7.32211 3.72553 9 6.5 9C9.27447 9 11.6982 7.32094 12.9215 4.84195C12.9731 4.7359 13 4.61872 13 4.49988C13 4.38104 12.9731 4.26387 12.9215 4.15781ZM6.5 7.875C5.85721 7.875 5.22885 7.67706 4.69439 7.30621C4.15993 6.93536 3.74337 6.40826 3.49739 5.79156C3.2514 5.17486 3.18704 4.49626 3.31244 3.84157C3.43784 3.18688 3.74738 2.58552 4.2019 2.11351C4.65642 1.64151 5.23552 1.32007 5.86595 1.18985C6.49639 1.05962 7.14986 1.12646 7.74372 1.38191C8.33758 1.63735 8.84517 2.06993 9.20228 2.62495C9.5594 3.17997 9.75001 3.83249 9.75001 4.5C9.75021 4.94327 9.66629 5.38224 9.50304 5.79181C9.33978 6.20138 9.1004 6.57353 8.79856 6.88697C8.49673 7.20041 8.13837 7.449 7.74397 7.61853C7.34957 7.78807 6.92686 7.87522 6.5 7.875ZM6.5 2.25C6.30661 2.25281 6.11447 2.28269 5.92877 2.33883C6.08184 2.55485 6.15529 2.82068 6.13581 3.08811C6.11633 3.35555 6.0052 3.60688 5.82258 3.79652C5.63995 3.98617 5.39793 4.10157 5.1404 4.1218C4.88287 4.14203 4.62688 4.06575 4.41887 3.9068C4.30042 4.35998 4.3218 4.84033 4.48 5.28023C4.63821 5.72014 4.92528 6.09745 5.3008 6.35905C5.67631 6.62066 6.12138 6.75339 6.57334 6.73856C7.02531 6.72374 7.46142 6.5621 7.82029 6.2764C8.17916 5.9907 8.44272 5.59533 8.57387 5.14593C8.70502 4.69654 8.69717 4.21575 8.55141 3.77123C8.40565 3.32671 8.12932 2.94085 7.76133 2.66796C7.39333 2.39507 6.95219 2.24889 6.5 2.25Z" fill="#1F8A6E"/>
</svg>
