<svg width="12" height="13" viewBox="0 0 12 13" fill="none" xmlns="http://www.w3.org/2000/svg">
<path d="M11.6786 4.0625H0.321429C0.144643 4.0625 0 3.92539 0 3.75781V2.84375C0 2.1709 0.575893 1.625 1.28571 1.625H2.57143V0.304688C2.57143 0.137109 2.71607 0 2.89286 0H3.96429C4.14107 0 4.28571 0.137109 4.28571 0.304688V1.625H7.71429V0.304688C7.71429 0.137109 7.85893 0 8.03571 0H9.10714C9.28393 0 9.42857 0.137109 9.42857 0.304688V1.625H10.7143C11.4241 1.625 12 2.1709 12 2.84375V3.75781C12 3.92539 11.8554 4.0625 11.6786 4.0625ZM0.321429 4.875H11.6786C11.8554 4.875 12 5.01211 12 5.17969V11.7812C12 12.4541 11.4241 13 10.7143 13H1.28571C0.575893 13 0 12.4541 0 11.7812V5.17969C0 5.01211 0.144643 4.875 0.321429 4.875ZM7.21339 8.9375L8.50179 7.71621C8.62768 7.59687 8.62768 7.40391 8.50179 7.28457L7.74375 6.56602C7.61786 6.44668 7.41429 6.44668 7.28839 6.56602L6 7.7873L4.71161 6.56602C4.58571 6.44668 4.38214 6.44668 4.25625 6.56602L3.49821 7.28457C3.37232 7.40391 3.37232 7.59687 3.49821 7.71621L4.78661 8.9375L3.49821 10.1588C3.37232 10.2781 3.37232 10.4711 3.49821 10.5904L4.25625 11.309C4.38214 11.4283 4.58571 11.4283 4.71161 11.309L6 10.0877L7.28839 11.309C7.41429 11.4283 7.61786 11.4283 7.74375 11.309L8.50179 10.5904C8.62768 10.4711 8.62768 10.2781 8.50179 10.1588L7.21339 8.9375Z" fill="black"/>
</svg>
